<?xml version="1.0" encoding="UTF-8"?>
<svg width="270px" height="35px" viewBox="0 0 270 35" version="1.1" xmlns="http://www.w3.org/2000/svg" xmlns:xlink="http://www.w3.org/1999/xlink">
    <!-- Generator: Sketch 44.1 (41455) - http://www.bohemiancoding.com/sketch -->
    <title>Page 1</title>
    <desc>Created with Sketch.</desc>
    <defs></defs>
    <g id="Page-1" stroke="none" stroke-width="1" fill="none" fill-rule="evenodd">
        <g id="Desktop" transform="translate(-101.000000, -58.000000)" fill="#FFFFFF">
            <path d="M341.879796,83.8590141 L339.775258,83.8590141 L339.775258,91.9535015 L344.402818,91.9535015 L344.402818,90.1712029 L341.879796,90.1712029 L341.879796,83.8590141 Z M320.011705,88.9364264 L318.261488,88.9364264 L319.13125,86.3599355 L319.152637,86.3599355 L320.011705,88.9364264 Z M320.580615,90.5469114 L321.10675,91.9535015 L323.350307,91.9535015 L320.301151,83.8590141 L318.004124,83.8590141 L314.890805,91.9535015 L317.123669,91.9535015 L317.681884,90.5469114 L320.580615,90.5469114 Z M272.131322,91.9535015 L274.235861,91.9535015 L274.235861,83.8590141 L272.131322,83.8590141 L272.131322,91.9535015 Z M297.203986,85.6405998 L298.94351,85.6405998 L298.94351,83.8590141 L293.360638,83.8590141 L293.360638,85.6405998 L295.100161,85.6405998 L295.100161,91.9535015 L297.203986,91.9535015 L297.203986,85.6405998 Z M249.238766,85.5550495 L249.592374,85.5550495 C250.408667,85.5550495 251.106615,85.5657433 251.106615,86.585931 C251.106615,87.5733244 250.355198,87.5733244 249.592374,87.5733244 L249.238766,87.5733244 L249.238766,85.5550495 Z M247.134941,91.9535015 L249.238766,91.9535015 L249.238766,89.2693598 L250.430054,89.2693598 C252.265822,89.2693598 253.296704,88.4316794 253.296704,86.5210553 C253.296704,84.6639002 252.094721,83.8590141 250.355198,83.8590141 L247.134941,83.8590141 L247.134941,91.9535015 Z M228.138489,88.9364264 L226.387559,88.9364264 L227.258034,86.3599355 L227.278708,86.3599355 L228.138489,88.9364264 Z M228.707399,90.5469114 L229.233534,91.9535015 L231.477091,91.9535015 L228.427935,83.8590141 L226.130908,83.8590141 L223.016876,91.9535015 L225.250453,91.9535015 L225.808669,90.5469114 L228.707399,90.5469114 Z M207.376136,84.0522153 C206.753045,83.7948514 206.130666,83.6437124 205.454105,83.6437124 C204.316286,83.6437124 203.167773,84.1377656 202.372868,84.9533455 C201.600063,85.7482506 201.181579,86.8105006 201.181579,87.9169516 C201.181579,89.1189338 201.589369,90.1712029 202.480518,90.9760889 C203.317486,91.7389127 204.391143,92.1673773 205.518981,92.1673773 C206.173441,92.1673773 206.677475,92.0069705 207.376136,91.7923817 L207.376136,89.2693598 C206.935552,89.7954943 206.248298,90.1277148 205.561756,90.1277148 C204.252123,90.1277148 203.371668,89.205197 203.371668,87.9276454 C203.371668,86.6714813 204.241429,85.6840879 205.529675,85.6840879 C206.248298,85.6840879 206.946246,85.9949208 207.376136,86.5745243 L207.376136,84.0522153 Z M361.433038,60.2613805 L362.045436,60.2613805 C365.60433,60.2613805 368.68129,61.5774298 368.68129,65.655329 C368.68129,69.7154052 365.60433,71.0499904 362.045436,71.0499904 L361.433038,71.0499904 L361.433038,60.2613805 Z M359.690663,72.6440783 L362.527369,72.6440783 C366.938915,72.6440783 370.423665,70.3449131 370.423665,65.5811854 C370.423665,60.9286731 366.864771,58.6672926 362.582977,58.6672926 L359.690663,58.6672926 L359.690663,72.6440783 Z M335.971833,72.6440783 L337.714208,72.6440783 L337.714208,62.2261865 L348.206243,73.2186914 L348.206243,58.6672926 L346.463155,58.6672926 L346.463155,68.991792 L335.971833,58 L335.971833,72.6440783 Z M314.003933,58.6672926 L314.003933,67.5096325 C314.003933,70.5865928 315.913844,72.9413657 319.120556,72.9413657 C322.327981,72.9413657 324.236466,70.5865928 324.236466,67.5096325 L324.236466,58.6672926 L322.494804,58.6672926 L322.494804,66.9164835 C322.494804,69.1963999 321.808975,71.3087802 319.120556,71.3087802 C316.43285,71.3087802 315.747021,69.1963999 315.747021,66.9164835 L315.747021,58.6672926 L314.003933,58.6672926 Z M296.151717,71.3087802 C293.130365,71.3087802 290.57241,68.8442177 290.57241,65.655329 C290.57241,62.5783687 292.870862,60.0018778 296.151717,60.0018778 C299.433285,60.0018778 301.731738,62.5783687 301.731738,65.655329 C301.731738,68.8442177 299.173783,71.3087802 296.151717,71.3087802 L296.151717,71.3087802 Z M296.151717,58.3707181 C292.147962,58.3707181 288.830035,61.6515734 288.830035,65.655329 C288.830035,69.8080848 292.11089,72.9413657 296.151717,72.9413657 C300.193258,72.9413657 303.474113,69.8080848 303.474113,65.655329 C303.474113,61.6515734 300.156186,58.3707181 296.151717,58.3707181 L296.151717,58.3707181 Z M269.856396,64.3022079 L269.856396,58.6672926 L268.114021,58.6672926 L268.114021,72.6440783 L269.856396,72.6440783 L269.856396,65.9340805 L276.511499,65.9340805 L276.511499,72.6440783 L278.253875,72.6440783 L278.253875,58.6672926 L276.511499,58.6672926 L276.511499,64.3022079 L269.856396,64.3022079 Z M249.344278,66.5635884 L249.344278,72.6440783 L251.086653,72.6440783 L251.086653,66.5635884 L255.646486,58.6672926 L253.644608,58.6672926 L250.215466,64.6365671 L246.786323,58.6672926 L244.784445,58.6672926 L249.344278,66.5635884 Z M223.493106,72.6440783 L231.000861,72.6440783 L231.000861,71.0499904 L225.235481,71.0499904 L225.235481,65.7665444 L230.834038,65.7665444 L230.834038,64.1724566 L225.235481,64.1724566 L225.235481,60.2613805 L231.000861,60.2613805 L231.000861,58.6672926 L223.493106,58.6672926 L223.493106,72.6440783 Z M201.674207,60.2243087 L202.137604,60.2243087 C203.861443,60.2243087 205.937465,60.540132 205.937465,62.7266559 C205.937465,64.9509646 204.009731,65.2853238 202.230284,65.2853238 L201.674207,65.2853238 L201.674207,60.2243087 Z M204.213626,66.5635884 C206.234752,66.3233345 207.568625,64.655103 207.568625,62.6525123 C207.568625,61.3179271 206.901332,60.0018778 205.73357,59.3160493 C204.622128,58.6858285 203.28683,58.6672926 202.044925,58.6672926 L199.931831,58.6672926 L199.931831,72.6440783 L201.674207,72.6440783 L201.674207,66.7304115 L202.397107,66.7304115 L206.512791,72.6440783 L208.625171,72.6440783 L204.213626,66.5635884 Z M182.607889,65.5997213 L182.607889,67.1945221 L186.22239,67.1945221 C186.14896,69.4744385 183.812723,71.3465649 181.644022,71.3465649 C178.621956,71.3465649 176.213001,68.5654662 176.213001,65.6367931 C176.213001,62.5042251 178.659741,59.964806 181.792309,59.964806 C183.497612,59.964806 185.185093,60.8730654 186.185319,62.2447224 L187.409401,61.0769603 C186.037744,59.3531211 183.886866,58.3707181 181.718165,58.3707181 C177.695874,58.3707181 174.469913,61.6701093 174.469913,65.6931137 C174.469913,69.567118 177.62173,72.9413657 181.532806,72.9413657 C185.444595,72.9413657 188.150838,69.9934438 188.150838,66.1565114 L188.150838,65.5997213 L182.607889,65.5997213 Z M134.833018,75.8500771 L134.833018,74.5219081 L117.916153,74.5219081 L117.916153,77.1775331 L132.116082,77.1775331 C131.444512,84.4207946 125.331941,90.1113177 117.916153,90.1113177 L117.916153,92.7662297 C127.243991,92.7662297 134.833018,85.1779151 134.833018,75.8500771 L134.833018,75.8500771 Z M158.010029,90.1113177 C150.146528,90.1113177 143.748789,83.7135785 143.748789,75.8500771 C143.748789,67.9858627 150.146528,61.5888365 158.010029,61.5888365 L158.010029,58.9332116 C148.682191,58.9332116 141.093877,66.522239 141.093877,75.8500771 C141.093877,85.1779151 148.682191,92.7662297 158.010029,92.7662297 L158.010029,90.1113177 Z M103.654912,75.8500771 L101,75.8500771 C101,66.522239 108.588315,58.9332116 117.916153,58.9332116 L117.916153,61.5888365 C110.052651,61.5888365 103.654912,67.9858627 103.654912,75.8500771 L103.654912,75.8500771 Z" id="Page-1"></path>
        </g>
    </g>
</svg>